<svg width="21" height="16" viewBox="0 0 21 16" fill="none" xmlns="http://www.w3.org/2000/svg">
<path d="M19 0C20.1046 0 21 0.89543 21 2V14C21 15.1046 20.1046 16 19 16H3C1.89543 16 1 15.1046 1 14V13H3V14H19V3.4226L12.0648 10.3578C11.479 10.9436 10.5293 10.9436 9.9435 10.3578L3 3.41431V4H1V2C1 0.89543 1.89543 0 3 0H19Z" fill="#334155"/>
<path d="M5 7C5 6.4477 4.55228 6 4 6H1C0.44772 6 0 6.4477 0 7C0 7.5523 0.44772 8 1 8H4C4.55228 8 5 7.5523 5 7Z" fill="#DA7D4A"/>
<path d="M5 10C5 9.4477 4.55228 9 4 9H1C0.44772 9 0 9.4477 0 10C0 10.5523 0.44772 11 1 11H4C4.55228 11 5 10.5523 5 10Z" fill="#DA7D4A"/>
</svg>
