<svg width="24" height="24" viewBox="0 0 24 24" fill="none" xmlns="http://www.w3.org/2000/svg">
<rect x="7" y="7" width="10" height="10" fill="#DA7D4A"/>
<path d="M12 2C17.5228 2 22 6.47715 22 12C22 17.5228 17.5228 22 12 22C6.47715 22 2 17.5228 2 12C2 6.47715 6.47715 2 12 2ZM11.2929 8.46447L8.46443 11.2929C8.07391 11.6834 8.07391 12.3166 8.46443 12.7071L11.2929 15.5355C11.6834 15.9261 12.3165 15.9261 12.7071 15.5355L15.5355 12.7071C15.926 12.3166 15.926 11.6834 15.5355 11.2929L12.7071 8.46447C12.3165 8.07394 11.6834 8.07394 11.2929 8.46447Z" fill="#334155"/>
</svg>
