<svg width="20" height="19" viewBox="0 0 20 19" fill="none" xmlns="http://www.w3.org/2000/svg">
<path d="M9 0C13.1825 0 16.6986 2.85296 17.7084 6.71896C16.7357 6.25792 15.648 6 14.5 6C10.3579 6 7 9.3579 7 13.5C7 15.182 7.55369 16.7347 8.4887 17.9857C6.99774 17.9021 5.60187 17.455 4.39052 16.7314L1.74127 17.5106C0.97559 17.7358 0.26419 17.0244 0.48939 16.2587L1.26858 13.6095C0.46288 12.2606 0 10.683 0 9C0 4.02944 4.02944 0 9 0Z" fill="#334155"/>
<path d="M20 13.5C20 10.4624 17.5376 8 14.5 8C11.4624 8 9 10.4624 9 13.5C9 16.5376 11.4624 19 14.5 19C15.4586 19 16.3622 18.754 17.1484 18.3213L18.459 18.7068C19.2222 18.9312 19.9312 18.2222 19.7068 17.459L19.3213 16.1484C19.754 15.3622 20 14.4586 20 13.5Z" fill="#DA7D4A"/>
</svg>
