<svg width="24" height="24" viewBox="0 0 24 24" fill="none" xmlns="http://www.w3.org/2000/svg">
<path fill-rule="evenodd" clip-rule="evenodd" d="M11 2C8.23858 2 6 4.23858 6 7C6 9.76142 8.23858 12 11 12C13.7614 12 16 9.76142 16 7C16 4.23858 13.7614 2 11 2ZM11 13C8.60453 13 6.42467 13.6937 4.82227 14.6715C4.02143 15.1602 3.33788 15.7363 2.84397 16.3615C2.35805 16.9767 2 17.713 2 18.5C2 19.3449 2.41114 20.0111 3.00266 20.4859C3.56324 20.9359 4.30182 21.2336 5.08716 21.4416C6.66466 21.8593 8.77101 22 11 22C11.2305 22 11.4591 21.9985 11.6854 21.9953C12.0257 21.9906 12.3403 21.8131 12.5203 21.5241C12.7002 21.2352 12.7209 20.8746 12.575 20.567C12.2066 19.79 12 18.9205 12 18C12 16.7478 12.3825 15.588 13.0369 14.6272C13.2349 14.3365 13.2656 13.9633 13.1179 13.6442C12.9702 13.325 12.6658 13.107 12.3161 13.0698C11.887 13.0242 11.4475 13 11 13Z" fill="#334155"/>
<path d="M18.0001 13.5C18.356 13.5 18.6851 13.6892 18.8642 13.9967L19.7739 15.5586L21.5404 15.9411C21.8883 16.0164 22.1699 16.2709 22.2799 16.6094C22.3898 16.9479 22.3116 17.3193 22.0745 17.5847L20.8702 18.9325L21.0523 20.7308C21.0881 21.0849 20.9331 21.4314 20.6451 21.6406C20.3572 21.8498 19.9798 21.8902 19.6541 21.7466L18.0001 21.0178L16.3461 21.7466C16.0204 21.8902 15.643 21.8498 15.3551 21.6406C15.0671 21.4314 14.9121 21.0849 14.9479 20.7308L15.13 18.9325L13.9257 17.5847C13.6886 17.3193 13.6104 16.9479 13.7203 16.6094C13.8303 16.2709 14.1119 16.0164 14.4598 15.9411L16.2263 15.5586L17.136 13.9967C17.3151 13.6892 17.6442 13.5 18.0001 13.5Z" fill="#DA7D4A"/>
</svg>
