<svg width="53" height="43" viewBox="0 0 53 43" fill="none" xmlns="http://www.w3.org/2000/svg">
<path fill-rule="evenodd" clip-rule="evenodd" d="M25.8493 42.9999C35.7246 42.9999 43.8214 35.3857 44.5893 25.7079C48.9596 24.5002 52.1687 20.4952 52.1687 15.7407C52.1687 10.0302 47.5395 5.40094 41.829 5.40094C39.5599 5.40094 37.4615 6.13185 35.7565 7.37108C34.4808 3.10747 30.5279 0 25.8492 0C21.269 0 17.3844 2.97811 16.0261 7.10357C14.3947 6.02736 12.4403 5.40094 10.3397 5.40094C4.62925 5.40094 0 10.0302 0 15.7407C0 20.319 2.97561 24.2023 7.09837 25.5621C7.79605 35.3092 15.9245 42.9999 25.8493 42.9999Z" fill="url(#paint0_linear_4732_1963)"/>
<circle cx="26.0843" cy="24.6084" r="10.4867" stroke="white" stroke-width="1.82107"/>
<path d="M25.9191 14.2023V35.5101" stroke="white" stroke-width="1.82107"/>
<path d="M17.1649 28.9031L25.5889 25.2692" stroke="white" stroke-width="1.82107"/>
<defs>
<linearGradient id="paint0_linear_4732_1963" x1="0.804842" y1="26.2795" x2="51.0541" y2="26.2795" gradientUnits="userSpaceOnUse">
<stop stop-color="#E6793B"/>
<stop offset="1" stop-color="#FF4185"/>
</linearGradient>
</defs>
</svg>
