<svg width="724" height="405" viewBox="0 0 724 405" fill="none" xmlns="http://www.w3.org/2000/svg">
<g clip-path="url(#clip0_4819_2235)">
<path d="M0.5 361.684C0.5 162.034 162.349 0.184448 362 0.184448C561.651 0.184448 723.5 162.034 723.5 361.684V404.184H0.5V361.684Z" fill="url(#paint0_linear_4819_2235)"/>
<path d="M754.341 286.52C752.586 286.52 750.901 286.795 749.314 287.293C748.174 276.47 739.009 268.031 727.869 268.031C724.857 268.031 721.991 268.651 719.386 269.765C719.416 269.272 719.462 268.784 719.462 268.28C719.462 254.646 708.399 243.594 694.751 243.594C683.739 243.594 674.416 250.798 671.225 260.741C669.378 260.035 667.383 259.633 665.286 259.633C658.167 259.633 652.106 264.096 649.709 270.37C647.216 268.89 644.315 268.021 641.206 268.021C631.995 268.021 624.525 275.484 624.525 284.685C624.525 286.901 624.967 289.016 625.756 290.953C617.237 294.079 611.151 302.233 611.151 311.826C611.151 324.118 621.125 334.082 633.43 334.082C640.198 334.082 646.254 331.057 650.34 326.294C655.648 330.808 662.523 333.543 670.039 333.543C673.698 333.543 677.204 332.898 680.456 331.713C685.306 336.212 691.794 338.967 698.934 338.967C708.771 338.967 717.386 333.747 722.154 325.923C724.724 327.54 727.757 328.49 731.019 328.49C738.082 328.49 744.108 324.098 746.54 317.901C748.866 319.131 751.517 319.838 754.336 319.838C763.547 319.838 771.018 312.38 771.018 303.174C771.018 293.978 763.552 286.52 754.341 286.52Z" fill="white"/>
<path d="M185.837 344.737C185.909 357.491 178.969 368.662 168.657 374.639L-11.2368 375.627C-14.9293 370.643 -17.1684 364.469 -17.2077 357.798C-17.2994 340.957 -3.69455 327.268 13.1118 327.176C19.253 327.144 24.9686 328.942 29.7807 332.036C33.5911 319.91 44.911 311.074 58.3194 311.002C58.1819 285.39 78.8576 264.507 104.489 264.37C130.128 264.226 151.033 284.887 151.17 310.492C170.189 310.388 185.732 325.692 185.837 344.737Z" fill="white"/>
<path d="M573.387 230.97C572.71 230.97 572.06 231.073 571.452 231.27C571.562 230.693 571.616 230.102 571.616 229.495C571.616 223.938 567.104 219.437 561.541 219.437C558.393 219.437 555.578 220.881 553.731 223.14C552.286 215.97 545.949 210.573 538.342 210.573C535.148 210.573 532.172 211.526 529.694 213.167C529.728 212.897 529.743 212.621 529.743 212.339C529.743 208.419 526.564 205.237 522.641 205.237C521.66 205.237 520.722 205.435 519.865 205.799C519.549 200.414 515.077 196.143 509.608 196.143C505.949 196.143 502.736 198.058 500.914 200.942C499.004 200.053 496.873 199.562 494.626 199.562C486.348 199.562 479.641 206.263 479.641 214.532C479.641 216.534 480.035 218.442 480.752 220.183C475.21 221.15 471.005 225.983 471.005 231.795C471.005 238.313 476.291 243.594 482.817 243.594H573.387C576.876 243.594 579.706 240.77 579.706 237.282C579.706 233.794 576.879 230.97 573.387 230.97Z" fill="white"/>
<path d="M35.2873 150.738C35.2873 155.394 36.9225 159.67 39.6454 163.027H152.298C152.628 162.852 152.95 162.666 153.273 162.472C160.222 158.274 164.863 150.653 164.863 141.949C164.863 128.71 154.119 117.965 140.866 117.965H140.583C139.231 110.705 132.857 105.223 125.197 105.223C121.538 105.223 118.17 106.476 115.506 108.575C114.472 109.382 113.548 110.313 112.759 111.357C112.002 110.046 111.124 108.812 110.134 107.683C105.853 102.782 99.5451 99.6932 92.53 99.6932C81.6696 99.6932 72.5531 107.081 69.9235 117.104C69.8069 117.523 69.7098 117.958 69.6127 118.388C68.6883 118.117 67.7055 117.969 66.684 117.969C60.9119 117.969 56.2314 122.645 56.2314 128.411C56.2314 129.404 56.3673 130.355 56.6198 131.259C56.0566 131.201 55.47 131.17 54.8874 131.17C53.524 131.17 52.1917 131.306 50.9176 131.577C41.9915 133.417 35.2873 141.301 35.2873 150.738Z" fill="white"/>
<path d="M310.736 27.7367C309.876 27.7337 309.038 27.8247 308.227 27.9915C305.394 20.9784 298.535 16.0128 290.494 15.9734C287.774 15.9612 285.186 16.5163 282.836 17.5204C281.005 7.69531 272.409 0.236277 262.039 0.18471C250.294 0.127076 240.729 9.5942 240.671 21.3242C240.668 21.6427 240.677 21.9582 240.689 22.2706C240.431 22.2524 240.176 22.2282 239.915 22.2282C233.08 22.1948 227.511 27.7034 227.478 34.5345C227.444 41.3656 232.958 46.9258 239.797 46.9592C240.422 46.9622 241.036 46.9046 241.637 46.8166C242.305 52.7408 247.312 57.3606 253.428 57.3879C257.6 57.4091 261.274 55.2827 263.424 52.0552C265.085 53.2473 267.113 53.9632 269.312 53.9753C272.797 53.9935 275.88 52.2554 277.729 49.5951C281.09 52.5436 285.487 54.3454 290.312 54.3697C295.426 54.3939 300.08 52.4162 303.539 49.1796C305.516 50.6599 307.96 51.5547 310.623 51.5668C317.213 51.5972 322.578 46.2888 322.611 39.7064C322.642 33.1301 317.325 27.7671 310.736 27.7367Z" fill="white"/>
</g>
<defs>
<linearGradient id="paint0_linear_4819_2235" x1="362" y1="0.184448" x2="397.57" y2="348.544" gradientUnits="userSpaceOnUse">
<stop stop-color="#FFD5E3"/>
<stop offset="0.15625" stop-color="#E8E3FE"/>
<stop offset="0.791667" stop-color="#A0D2FF"/>
</linearGradient>
<clipPath id="clip0_4819_2235">
<path d="M0.5 361.684C0.5 162.034 162.349 0.184448 362 0.184448C561.651 0.184448 723.5 162.034 723.5 361.684V404.184H0.5V361.684Z" fill="white"/>
</clipPath>
</defs>
</svg>
